<?xml version="1.0" encoding="utf-8"?>
<!-- Generator: Adobe Illustrator 16.0.0, SVG Export Plug-In . SVG Version: 6.00 Build 0)  -->
<!DOCTYPE svg PUBLIC "-//W3C//DTD SVG 1.1//EN" "http://www.w3.org/Graphics/SVG/1.1/DTD/svg11.dtd">
<svg version="1.1" id="Layer_1" xmlns="http://www.w3.org/2000/svg" xmlns:xlink="http://www.w3.org/1999/xlink" x="0px" y="0px"
	 width="1088.99px" height="1146.36px" viewBox="0 0 1088.99 1146.36" enable-background="new 0 0 1088.99 1146.36"
	 xml:space="preserve">
<g>
	<defs>
		<rect id="SVGID_1_" y="0.003" width="1088.989" height="1146.357"/>
	</defs>
	<clipPath id="SVGID_2_">
		<use xlink:href="#SVGID_1_"  overflow="visible"/>
	</clipPath>
	<path clip-path="url(#SVGID_2_)" fill="none" stroke="#FFFFFF" stroke-width="50.685" stroke-miterlimit="10" d="M544.498,1121.017
		c-77.146,0-148.002-11.588-210.601-34.437c-64.644-23.601-120.591-59.201-166.29-105.819
		c-46.581-47.514-82.319-106.276-106.226-174.662c-23.906-68.392-36.038-146.757-36.038-232.918
		c0-178.622,47.969-317.289,142.583-412.153C257.722,70.995,384.42,25.345,544.498,25.345c79.134,0,151.33,11.813,214.585,35.107
		c64.87,23.894,120.761,59.958,166.109,107.195c45.686,47.582,80.637,106.452,103.874,174.969
		c22.942,67.647,34.58,145.224,34.58,230.565c0,178.854-46.713,317.184-138.842,411.134
		C835.866,1075.024,707.91,1121.017,544.498,1121.017z"/>
	<path clip-path="url(#SVGID_2_)" fill="#FFFFFF" d="M544.498,142.354c-131.628,0-233.581,35.301-303.012,104.913
		c-72.734,72.927-109.611,184.128-109.611,330.509c0,142.328,36.983,252.22,109.924,326.624
		c34.55,35.238,77.383,62.348,127.323,80.58c51.293,18.72,110.3,28.218,175.376,28.218c134.606,0,237.585-35.426,306.089-105.288
		c70.689-72.096,106.527-183.164,106.527-330.134c0-142.014-35.97-251.487-106.908-325.379
		C780.093,179.382,677.24,142.354,544.498,142.354"/>
	<path clip-path="url(#SVGID_2_)" fill="#CFC285" d="M544.498,1128.973c-77.033,0-147.902-11.612-210.644-34.512
		c-65.264-23.825-121.812-59.832-168.067-107.021c-47.17-48.114-83.34-107.546-107.497-176.639
		C34.315,742.217,22.164,663.82,22.164,577.778c0-179.035,48.458-318.397,144.029-414.218
		C256.84,72.663,384.126,26.582,544.498,26.582c78.991,0,151.186,11.832,214.573,35.182
		c65.525,24.132,122.037,60.627,167.973,108.466c46.275,48.195,81.645,107.74,105.125,176.977
		c23,67.816,34.662,145.387,34.662,230.571c0,179.204-47.2,318.202-140.281,413.136
		C836.716,1082.524,708.173,1128.973,544.498,1128.973 M544.498,144.302c-131.948,0-233.694,34.938-302.418,103.842
		c-71.901,72.096-108.359,183.002-108.359,329.634c0,142.49,36.602,252.076,108.785,325.711
		c34.03,34.712,76.344,61.459,125.76,79.497c51.379,18.758,110.668,28.269,176.232,28.269c134.969,0,237.754-35.037,305.501-104.131
		c69.856-71.238,105.275-182.045,105.275-329.346c0-142.246-35.595-251.437-105.794-324.547
		C780.081,180.948,677.471,144.302,544.498,144.302"/>
	<path clip-path="url(#SVGID_2_)" fill="#DB0025" d="M544.498,1139.81c-79.141,0-151.844-11.887-216.056-35.331
		c-66.321-24.207-123.72-60.734-170.602-108.553c-47.788-48.752-84.452-109.042-108.979-179.192
		c-24.532-70.163-36.964-150.561-36.964-238.956c0-183.252,49.209-325.517,146.269-422.827
		c92.13-92.374,222.106-139.205,386.332-139.205c81.193,0,155.253,12.119,220.147,36.014
		c66.547,24.513,123.883,61.509,170.413,109.973c46.869,48.815,82.727,109.211,106.564,179.505
		c23.544,69.405,35.477,148.984,35.477,236.54c0,183.49-47.921,325.399-142.44,421.788
		C843.411,1092.623,712.146,1139.81,544.498,1139.81 M544.498,126.677c-136.371,0-241.99,36.57-313.923,108.691
		c-75.356,75.55-113.559,190.754-113.559,342.41c0,147.451,38.315,261.298,113.884,338.387
		c35.794,36.509,80.167,64.596,131.909,83.477c53.139,19.396,114.267,29.239,181.689,29.239
		c139.449,0,246.145-36.703,317.114-109.079c73.233-74.688,110.362-189.761,110.362-342.023
		c0-147.132-37.267-260.547-110.757-337.091C788.584,165.031,682.014,126.677,544.498,126.677"/>
	<path clip-path="url(#SVGID_2_)" fill="#CFC285" d="M70.781,594.67c15.292-0.863,23.901,8.491,24.508,20.453
		c0.626,12.388-8.028,21.599-21.479,22.355c-14.109,0.794-23.801-7.934-24.439-20.452C48.714,604.224,57.592,595.416,70.781,594.67
		 M73.353,631.015c9.498-0.53,17.719-6.443,17.237-15.973c-0.488-9.597-9.135-14.553-19.22-13.983
		c-8.835,0.5-17.82,5.888-17.307,15.979C54.57,627.055,63.592,631.567,73.353,631.015"/>
	<path clip-path="url(#SVGID_2_)" fill="#CFC285" d="M49.505,571.697c-0.556-3.072-0.826-7.464-0.763-11.638
		c0.087-6.481,1.264-10.642,3.81-13.526c2.021-2.34,5.074-3.616,8.503-3.56c5.869,0.087,9.71,4.048,11.231,9.022h0.194
		c1.239-3.604,4.436-5.713,9.072-6.758c6.219-1.438,10.53-2.483,12.257-3.428l-0.088,6.263c-1.264,0.744-5.105,1.733-10.667,2.972
		c-6.157,1.295-8.497,3.766-8.772,9.265l-0.082,5.713l19.265,0.294l-0.076,6.057L49.505,571.697z M69.846,565.953l0.087-6.193
		c0.088-6.483-3.222-10.637-8.302-10.718c-5.738-0.088-8.315,4.261-8.466,10.661c-0.044,2.929,0.194,5.024,0.445,6L69.846,565.953z"
		/>
	<polygon clip-path="url(#SVGID_2_)" fill="#CFC285" points="50.868,512.501 95.259,515.512 94.89,521.563 50.499,518.545 	"/>
	<polygon clip-path="url(#SVGID_2_)" fill="#CFC285" points="79.072,465.042 77.038,483.162 92.968,485.151 95.226,464.955 
		100.013,465.556 97.072,491.771 52.895,486.253 55.729,461.075 60.508,461.67 58.356,480.828 72.321,482.573 74.348,464.454 	"/>
	<path clip-path="url(#SVGID_2_)" fill="#CFC285" d="M102.986,444.974l-43.572-9.441l1.258-6.476l24.92-9.96
		c5.769-2.303,10.874-3.974,15.755-5.188l-0.038-0.15c-5.919-0.72-11.243-1.727-18.031-3.198l-18.232-3.954l1.088-5.593
		l43.565,9.441l-1.163,6.007l-24.952,9.803c-5.474,2.159-11.043,4.149-16.211,5.444l0.025,0.219
		c5.556,0.851,10.818,1.846,18.057,3.416l18.62,4.036L102.986,444.974z"/>
	<polygon clip-path="url(#SVGID_2_)" fill="#CFC285" points="80.184,366.899 76.148,380.521 71.487,378.981 81.316,345.821 
		85.971,347.359 81.917,361.049 119.701,373.513 117.968,379.363 	"/>
	<path clip-path="url(#SVGID_2_)" fill="#CFC285" d="M115.712,335.06l11.043,10.293l-2.34,5.761L89.477,317.98l2.722-6.721
		l46.869,3.748l-2.415,5.957l-14.735-1.207L115.712,335.06z M117.326,319.049l-13.483-1.088c-3.066-0.251-5.744-0.707-8.371-1.133
		l-0.057,0.125c2.171,1.74,4.373,3.567,6.519,5.519l10.118,9.573L117.326,319.049z"/>
	<polygon clip-path="url(#SVGID_2_)" fill="#CFC285" points="109.413,274.084 112.316,268.854 146.547,290.046 156.169,272.74 
		160.324,275.312 147.798,297.848 	"/>
	<path clip-path="url(#SVGID_2_)" fill="#CFC285" d="M174.673,183.207c1.483-2.209,4.123-5.356,7.07-8.246
		c4.217-4.124,7.595-6.007,11.156-6.263c2.865-0.326,5.681,0.719,8.052,3.428c2.922,3.322,3.398,8.272,1.126,12.964l0.094,0.1
		c3.817-2.215,9.823-3.06,14.315,2.052c2.603,2.96,3.467,6.301,3.298,9.598c-0.338,4.423-3.129,9.047-8.447,14.259
		c-2.909,2.841-5.318,4.811-6.901,5.982L174.673,183.207z M191.278,193.186l3.823-3.742c4.455-4.36,4.918-9.366,1.996-12.688
		c-3.541-4.036-7.846-2.778-12.1,1.389c-1.94,1.896-2.916,3.141-3.46,3.954L191.278,193.186z M205.775,209.69
		c0.958-0.65,2.215-1.783,3.717-3.253c4.354-4.267,6.894-9.886,2.496-14.885c-4.13-4.705-9.667-2.903-14.259,1.596l-3.491,3.409
		L205.775,209.69z"/>
	<path clip-path="url(#SVGID_2_)" fill="#CFC285" d="M215.42,146.274c2.046-2.259,5.28-5.043,8.541-7.421
		c5.036-3.691,8.934-5.093,12.638-4.586c2.978,0.369,5.737,2.253,7.689,5.231c3.348,5.093,2.522,10.693-0.431,14.879l0.118,0.174
		c3.492-1.038,6.983,0.488,10.487,3.861c4.717,4.505,8.033,7.595,9.766,8.528l-4.88,3.566c-1.314-0.65-4.311-3.372-8.496-7.433
		c-4.58-4.53-7.846-5.106-12.245-2.146l-4.454,3.253l10.974,16.718l-4.718,3.454L215.42,146.274z M231.675,160.401l4.83-3.528
		c5.049-3.685,6.332-8.947,3.435-13.358c-3.266-4.981-8.115-4.656-13.139-1.071c-2.284,1.671-3.76,3.091-4.367,3.874
		L231.675,160.401z"/>
	<polygon clip-path="url(#SVGID_2_)" fill="#CFC285" points="293.248,126.563 277.888,134.948 285.264,149.983 302.375,140.636 
		304.584,145.153 282.379,157.285 261.927,115.59 283.262,103.94 285.482,108.451 269.241,117.323 275.704,130.494 291.058,122.116 
			"/>
	<path clip-path="url(#SVGID_2_)" fill="#CFC285" d="M329.327,133.798l-25.421-40.287l5.725-2.127l12.451,20.528
		c3.091,5.056,6.056,10.155,8.221,14.14l0.125-0.044c-0.782-4.654-1.232-10.392-1.714-16.629l-1.858-24.408l5.668-2.102
		l12.595,20.553c2.94,4.812,5.812,9.648,7.996,14.071l0.119-0.044c-0.751-5.18-1.208-10.542-1.746-16.542l-1.927-24.383l5.543-2.058
		l2.897,48.665l-5.656,2.103l-12.982-21.073c-3.198-5.161-5.519-9.166-7.565-13.42l-0.131,0.043
		c0.726,4.681,1.239,9.361,1.596,15.648l1.72,25.265L329.327,133.798z"/>
	<polygon clip-path="url(#SVGID_2_)" fill="#CFC285" points="404.811,87.82 387.943,91.85 391.478,108.355 410.286,103.868 
		411.349,108.83 386.942,114.655 377.131,68.856 400.569,63.269 401.632,68.224 383.795,72.479 386.898,86.95 403.766,82.927 	"/>
	<path clip-path="url(#SVGID_2_)" fill="#CFC285" d="M424.72,59.29c2.79-1.052,6.857-2.009,10.78-2.591
		c6.081-0.907,10.154-0.318,13.251,1.89c2.503,1.739,4.167,4.724,4.649,8.309c0.826,6.138-2.296,10.755-6.713,13.101l0.025,0.207
		c3.572,0.732,6.037,3.741,7.733,8.409c2.302,6.269,3.948,10.599,5.106,12.25l-5.882,0.883c-0.901-1.202-2.415-5.056-4.429-10.668
		c-2.166-6.213-4.843-8.278-10.037-7.715l-5.355,0.801l2.697,20.134l-5.688,0.851L424.72,59.29z M433.241,79.611l5.819-0.863
		c6.069-0.907,9.453-4.999,8.746-10.311c-0.807-6-5.274-8.002-11.299-7.177c-2.741,0.407-4.667,0.976-5.537,1.389L433.241,79.611z"
		/>
	<path clip-path="url(#SVGID_2_)" fill="#CFC285" d="M487.56,98.295l-1.301-19.877l-15.792-25.947l6.519-0.475l7.101,12.476
		c1.946,3.416,3.448,6.175,5.043,9.335l0.132-0.007c1.051-3.147,2.365-6.319,3.848-9.991l5.543-13.39l6.519-0.475l-13.12,27.979
		l1.308,19.947L487.56,98.295z"/>
	<path clip-path="url(#SVGID_2_)" fill="#CFC285" d="M610.579,97.395c-2.177,0.97-6.457,1.796-11.863,1.433
		c-12.513-0.851-21.423-9.829-20.49-25.19c0.896-14.665,10.918-23.963,24.683-23.031c5.531,0.376,8.947,1.859,10.411,2.797
		l-1.684,4.843c-2.102-1.258-5.148-2.303-8.834-2.553c-10.404-0.707-17.75,5.844-18.501,18.145
		c-0.7,11.468,5.111,19.258,15.911,19.996c3.491,0.238,7.096-0.288,9.466-1.314L610.579,97.395z"/>
	<path clip-path="url(#SVGID_2_)" fill="#CFC285" d="M669.372,82.947c-2.215,15.979-12.595,23.03-23.826,21.297
		c-11.618-1.789-18.463-12.563-16.517-26.609c2.052-14.747,12.068-23.056,23.818-21.236C664.867,58.25,671.28,69.168,669.372,82.947
		 M635.123,78.428c-1.376,9.917,2.484,19.596,11.431,20.979c9.01,1.389,15.311-6.576,16.774-17.112
		c1.283-9.235-1.952-19.583-11.418-21.048C642.512,59.796,636.537,68.237,635.123,78.428"/>
	<path clip-path="url(#SVGID_2_)" fill="#CFC285" d="M726.426,100.77c1.264-6.419,2.783-14.133,4.272-19.771l-0.192-0.05
		c-2.805,4.905-6.008,10.061-9.742,15.723l-13.108,19.896l-4.21-1.17l-1.546-23.556c-0.438-6.97-0.695-13.301-0.557-19.033
		l-0.125-0.031c-1.546,5.618-3.773,13.139-5.856,19.834l-6.025,19.138l-5.294-1.476l14.36-44.547l7.088,1.971l1.84,24
		c0.388,6.088,0.607,11.481,0.508,16.499l0.199,0.05c2.228-4.272,5.005-8.828,8.353-14.021l13.157-19.815l7.084,1.977l-8.691,46.13
		l-5.418-1.514L726.426,100.77z"/>
	<path clip-path="url(#SVGID_2_)" fill="#CFC285" d="M763.809,86.918c2.74,0.638,6.263,1.677,10.542,3.497
		c5.269,2.234,8.634,5.168,10.198,8.534c1.477,3.028,1.621,6.77,0.145,10.643c-1.508,3.942-3.791,6.576-6.738,7.959
		c-4.018,1.97-9.229,1.632-14.428-0.576c-1.596-0.67-3.048-1.364-4.143-2.203l-6.65,17.45l-5.324-2.265L763.809,86.918z
		 M761.131,110.18c1.045,0.82,2.465,1.57,4.242,2.327c6.425,2.729,11.6,1.095,13.89-4.917c2.196-5.75-0.601-10.167-6.487-12.664
		c-2.328-0.988-4.175-1.545-5.194-1.677L761.131,110.18z"/>
	<path clip-path="url(#SVGID_2_)" fill="#CFC285" d="M798.619,137.639l-10.706,10.686l-5.218-2.978l34.4-33.761l6.094,3.473
		l-7.728,48.914l-5.405-3.065l2.452-15.379L798.619,137.639z M813.592,140.767l2.232-14.078c0.507-3.19,1.177-5.975,1.815-8.696
		l-0.112-0.063c-1.834,2.121-3.761,4.274-5.794,6.357l-9.942,9.773L813.592,140.767z"/>
	<path clip-path="url(#SVGID_2_)" fill="#CFC285" d="M828.492,174.427l26.717-37.54l5.012,3.973l-2.121,28.024
		c-0.488,6.494-1.245,12.075-2.29,17.262l0.15,0.025c3.146-5.349,6.288-9.998,10.448-15.848l11.175-15.705l4.33,3.429l-26.71,37.54
		l-4.649-3.685l2.259-27.992c0.494-6.144,1.17-12.314,2.271-17.8l-0.2-0.076c-3.104,4.943-6.207,9.542-10.643,15.78l-11.426,16.042
		L828.492,174.427z"/>
	<path clip-path="url(#SVGID_2_)" fill="#CFC285" d="M877.855,217.933l13.458-13.971l8.403-29.544l4.586,4.924l-4.361,13.808
		c-1.188,3.78-2.196,6.777-3.441,10.117l0.095,0.095c2.953-1.202,6.094-2.209,9.698-3.41l13.244-4.273l4.588,4.917l-28.683,7.69
		l-13.514,14.021L877.855,217.933z"/>
	<path clip-path="url(#SVGID_2_)" fill="#CFC285" d="M900.885,239.132c1.889-1.633,4.261-1.433,5.725,0.457
		c1.458,1.883,1.139,4.323-0.751,5.956c-1.84,1.589-4.18,1.54-5.725-0.456C898.67,243.206,899.045,240.722,900.885,239.132"/>
	<polygon clip-path="url(#SVGID_2_)" fill="#CFC285" points="982.417,291.752 984.882,297.228 949.03,315.166 957.178,333.291 
		952.828,335.469 942.218,311.868 	"/>
	<polygon clip-path="url(#SVGID_2_)" fill="#CFC285" points="1003.308,343.135 961.639,359.509 959.636,353.834 1001.305,337.46 	
		"/>
	<path clip-path="url(#SVGID_2_)" fill="#CFC285" d="M999.722,414.64c5.918-1.983,13.039-4.373,18.419-5.774l-0.044-0.207
		c-5.437-0.163-11.261-0.576-17.762-1.239l-22.868-2.29l-1.095-4.448l18.688-12.977c5.544-3.822,10.649-7.164,15.442-9.848
		l-0.031-0.131c-5.406,1.332-12.701,2.978-19.252,4.342l-18.758,3.854l-1.383-5.593l43.835-8.647l1.846,7.483l-18.914,13.464
		c-4.837,3.342-9.185,6.188-13.371,8.566l0.05,0.2c4.63-0.05,9.748,0.275,15.68,0.807l22.818,2.377l1.845,7.478l-42.356,14.646
		l-1.414-5.731L999.722,414.64z"/>
	<polygon clip-path="url(#SVGID_2_)" fill="#CFC285" points="1030.871,446.797 986.999,454.6 986.048,448.625 1029.92,440.823 	"/>
	<polygon clip-path="url(#SVGID_2_)" fill="#CFC285" points="1030.59,482.557 1029.144,468.367 1033.993,467.817 1037.516,502.366 
		1032.661,502.911 1031.209,488.651 991.848,493.112 991.222,487.025 	"/>
	<polygon clip-path="url(#SVGID_2_)" fill="#CFC285" points="1016.171,549.098 1015.45,530.873 999.421,531.58 1000.229,551.896 
		995.417,552.102 994.372,525.736 1038.808,523.777 1039.809,549.098 1034.996,549.312 1034.233,530.041 1020.193,530.661 
		1020.92,548.885 	"/>
	<path clip-path="url(#SVGID_2_)" fill="#CFC285" d="M1039.567,574.134c0.45,3.704,0.764,8.097,0.669,12.901
		c-0.163,8.709-2.195,14.859-5.905,18.895c-3.712,4.1-8.91,6.42-16.1,6.271c-7.264-0.157-13.157-2.653-17.162-7.126
		c-4.072-4.48-6.175-11.771-6-20.893c0.081-4.316,0.351-7.934,0.744-10.992L1039.567,574.134z M1000.119,579.346
		c-0.295,1.526-0.4,3.754-0.451,6.119c-0.25,12.951,6.476,20.134,18.488,20.397c10.493,0.294,17.281-5.831,17.525-18.646
		c0.057-3.135-0.163-5.506-0.463-7.114L1000.119,579.346z"/>
	<path clip-path="url(#SVGID_2_)" fill="#CFC285" d="M997.205,629.149c2.434,0.182,4.028,2.046,3.859,4.479
		c-0.156,2.428-1.982,3.967-4.417,3.786c-2.371-0.183-4.036-1.909-3.866-4.48C992.943,630.506,994.833,628.973,997.205,629.149"/>
	<path clip-path="url(#SVGID_2_)" fill="#CFC285" d="M213.656,947.866c2.252,1.296,5.512,3.698,8.571,6.458
		c4.368,3.941,6.533,7.264,7.183,10.968c0.632,2.959-0.025,6.031-2.296,8.834c-2.797,3.441-7.395,4.513-12.069,2.673l-0.088,0.105
		c2.528,3.741,4.011,9.942-0.281,15.236c-2.484,3.07-5.525,4.359-8.647,4.56c-4.204,0.15-8.872-2.232-14.391-7.214
		c-3.009-2.716-5.143-5.006-6.432-6.532L213.656,947.866z M192.321,983.504c0.725,0.933,1.939,2.114,3.491,3.517
		c4.511,4.073,10.092,6.088,14.296,0.9c3.948-4.866,1.614-10.454-3.147-14.753l-3.61-3.266L192.321,983.504z M206.179,966.411
		l3.96,3.579c4.618,4.161,9.386,4.067,12.17,0.626c3.391-4.18,1.714-8.534-2.703-12.519c-2.002-1.81-3.285-2.691-4.117-3.166
		L206.179,966.411z"/>
	<path clip-path="url(#SVGID_2_)" fill="#CFC285" d="M250.156,978.778c2.766,1.133,6.438,3.216,9.767,5.481
		c5.162,3.516,7.884,6.775,8.853,10.586c0.814,3.041,0.213,6.451-1.645,9.492c-3.185,5.212-8.403,6.55-13.202,5.273l-0.106,0.176
		c2.246,3.021,2.246,7.001,0.626,11.699c-2.147,6.332-3.579,10.743-3.736,12.796l-4.993-3.396c0.069-1.528,1.314-5.495,3.266-11.125
		c2.215-6.201,1.477-9.611-2.797-12.771l-4.554-3.098l-10.449,17.094l-4.824-3.285L250.156,978.778z M244,1000.032l4.936,3.36
		c5.156,3.517,10.261,2.759,13.008-1.752c3.116-5.092,0.982-9.698-4.086-13.227c-2.327-1.589-4.135-2.489-5.061-2.783L244,1000.032z
		"/>
	<polygon clip-path="url(#SVGID_2_)" fill="#CFC285" points="300.836,1036.811 285.294,1028.816 278.268,1044.025 295.587,1052.941 
		293.472,1057.508 270.992,1045.94 290.487,1003.751 312.08,1014.857 309.971,1019.43 293.535,1010.978 287.378,1024.31 
		302.919,1032.307 	"/>
	<path clip-path="url(#SVGID_2_)" fill="#CFC285" d="M323.229,1070.372l3.385-48.289l5.762,2.026l-2.127,24.289
		c-0.5,5.988-1.133,11.938-1.739,16.493l0.125,0.044c2.083-4.187,5.08-9.003,8.334-14.247l12.738-20.465l5.7,2.002l-2.021,24.4
		c-0.482,5.706-1.026,11.388-1.883,16.299l0.125,0.045c2.421-4.58,5.174-9.117,8.247-14.197l12.682-20.497l5.568,1.964l-26.046,40.3
		l-5.694-2.009l2.014-25.057c0.489-6.146,0.996-10.813,1.846-15.498l-0.119-0.051c-2.158,4.16-4.473,8.196-7.858,13.39
		l-13.346,21.065L323.229,1070.372z"/>
	<polygon clip-path="url(#SVGID_2_)" fill="#CFC285" points="412.21,1073.459 395.311,1069.612 391.926,1086.155 410.771,1090.447 
		409.745,1095.415 385.294,1089.846 394.679,1043.965 418.16,1049.31 417.147,1054.277 399.277,1050.209 396.312,1064.712 
		413.211,1068.554 	"/>
	<path clip-path="url(#SVGID_2_)" fill="#CFC285" d="M437.991,1053.645c3.535-0.081,7.714,0.063,12.231,0.676
		c8.178,1.107,13.765,3.897,17.169,8.228c3.472,4.33,5.099,10.03,4.185,17.556c-0.925,7.603-3.904,13.521-8.546,17.244
		c-4.662,3.798-11.75,5.225-20.328,4.062c-4.067-0.545-7.445-1.215-10.28-1.953L437.991,1053.645z M438.679,1095.602
		c1.408,0.471,3.498,0.82,5.718,1.127c12.182,1.646,19.672-4.643,21.198-17.219c1.396-10.98-3.641-18.758-15.692-20.385
		c-2.947-0.4-5.205-0.424-6.75-0.281L438.679,1095.602z"/>
	<polygon clip-path="url(#SVGID_2_)" fill="#CFC285" points="552.509,1061.243 552.722,1108.181 546.984,1108.206 546.765,1061.274 
			"/>
	<path clip-path="url(#SVGID_2_)" fill="#CFC285" d="M577.341,1107.85l-2.29-46.888l6.263-0.343l15.404,22.948
		c3.56,5.318,6.369,10.117,8.716,14.804l0.131-0.075c-0.838-6.231-1.245-11.931-1.603-19.24l-0.956-19.614l5.405-0.294l2.29,46.889
		l-5.806,0.312l-15.268-23.023c-3.353-5.05-6.581-10.243-9.071-15.198l-0.2,0.081c0.625,5.888,1.026,11.519,1.414,19.308
		l0.976,20.041L577.341,1107.85z"/>
	<path clip-path="url(#SVGID_2_)" fill="#CFC285" d="M682.764,1049.26l5.611-1.231l4.386,22.147l0.194-0.043
		c0.809-2.028,1.652-3.924,2.453-5.663l9.898-20.165l6.97-1.539l-11.913,22.962l22.217,22.705l-6.65,1.458l-18.795-19.401
		l-3.135,5.957l3.46,17.512l-5.618,1.233L682.764,1049.26z"/>
	<path clip-path="url(#SVGID_2_)" fill="#CFC285" d="M770.622,1048.511c4.586,15.417-1.864,26.528-12.695,30.12
		c-11.211,3.71-21.811-2.859-25.84-16.411c-4.224-14.222,1.383-26.304,12.726-30.051
		C756.395,1028.333,766.675,1035.222,770.622,1048.511 M737.906,1060.142c2.847,9.573,10.305,16.52,18.933,13.665
		c8.69-2.878,11.093-12.944,8.071-23.112c-2.641-8.903-9.823-16.749-18.952-13.727
		C736.892,1039.971,734.983,1050.307,737.906,1060.142"/>
	<path clip-path="url(#SVGID_2_)" fill="#CFC285" d="M781.679,1019.75c2.401-1.841,6.056-3.962,9.665-5.688
		c5.601-2.666,9.668-3.309,13.228-2.102c2.859,0.925,5.255,3.303,6.669,6.606c2.416,5.649,0.651,10.999-2.965,14.561l0.088,0.192
		c3.616-0.351,6.781,1.81,9.646,5.787c3.88,5.338,6.607,9.01,8.159,10.255l-5.412,2.584c-1.176-0.889-3.66-4.142-7.089-8.928
		c-3.729-5.331-6.845-6.519-11.681-4.442l-4.931,2.353l7.939,18.533l-5.23,2.496L781.679,1019.75z M795.262,1036.735l5.349-2.553
		c5.6-2.665,7.765-7.601,5.669-12.488c-2.365-5.519-7.189-6.125-12.751-3.547c-2.528,1.207-4.224,2.32-4.955,2.972L795.262,1036.735
		z"/>
	<polygon clip-path="url(#SVGID_2_)" fill="#CFC285" points="855.299,1006.283 840.545,1015.787 848.904,1030.227 865.334,1019.635 
		867.85,1023.97 846.508,1037.717 823.346,997.674 843.836,984.466 846.345,988.808 830.747,998.856 838.067,1011.508 
		852.82,1002.003 	"/>
	<path clip-path="url(#SVGID_2_)" fill="#CFC285" d="M884.596,992.791l5.374,14.478l-4.566,3.997l-16.769-46.305l5.337-4.667
		l40.08,25.896l-4.723,4.136l-12.589-8.158L884.596,992.791z M892.961,979.319l-11.531-7.464c-2.615-1.688-4.805-3.391-6.957-5.037
		l-0.106,0.094c1.183,2.592,2.346,5.274,3.416,8.048l4.868,13.388L892.961,979.319z"/>
	<path clip-path="url(#SVGID_2_)" fill="#FFFFFF" d="M523.608,311.512c0,0,9.16-4.805,6.419-17.069c0,0-4.185-15.128-19.483-9.916
		l-3.266,1.094c-0.056-3.096-0.538-6.263-1.501-9.428c-6.101-20.16-24.777-25.621-40.35-20.86
		c-14.728,4.505-27.31,21.936-21.173,41.826c5.95,19.277,23.275,26.478,40.306,20.678c1.314-0.45,2.578-0.976,3.804-1.57
		l10.217,33.373c0,0,1.333,2.915-1.382,4.542l-2.24,0.764l0.775,2.546l35.87-12.226c0,0,15.154-4.748,11.731-20.697
		C543.335,324.568,540.496,309.116,523.608,311.512 M466.974,311.242c-16.981-4.773-19.859-24.669-19.859-24.669
		c-1.239-18.908,15.861-24.22,15.861-24.22c17.468-6.726,31.402,7.339,31.402,7.339c5.58,6.375,7.702,12.407,8.146,17.537
		l-25.252,8.497l0.663,2.165l1.708-0.582c0,0,2.034-1.958,4.28,4.436l2.859,9.341C476.509,314.802,466.974,311.242,466.974,311.242
		 M502.504,291.758c-0.669,6.72-3.885,11.024-3.885,11.024c-1.258,1.458-2.565,2.716-3.898,3.798l-3.372-11.018L502.504,291.758z
		 M507.054,290.183c3.303-1.02,11.769-2.585,14.897,6.876c3.836,11.606-7.089,14.903-7.089,14.903l-16.742,5.706l-2.009-6.531
		C502.186,305.762,506.108,298.334,507.054,290.183 M523.04,342.969l-15.561,5.3l-8.077-26.41l13.446-4.579
		c0,0,17.18-7.127,21.454,7.282C538.682,339.341,523.04,342.969,523.04,342.969"/>
	<path clip-path="url(#SVGID_2_)" fill="#DB0025" d="M537.923,215.395c25.959,0.288,48.915,1.771,73.491,9.548
		c6.939,2.196,16.443,7.983,21.948,12.957c4.023,3.642,7.865,7.478,11.488,11.513c13.27,14.615,24.025,31.464,32.984,49.446
		c8.947,18.007,16.074,37.165,21.942,56.917c1.477,4.918,5.118,16.124,2.247,19.634c-3.166,3.854-9.348,1.377-13.603,0.726
		c-6.914-1.064-13.847-1.984-20.798-2.766c-36.683-4.129-73.766-4.298-110.455-0.137c-36.095,4.085-71.74,12.363-106.164,24.521
		c-10.136,3.585-17.875,2.615-17.487-8.653c0.175-5.287,0.469-12.295,1.138-19.897c1.859-21.079,6.194-43.183,12.345-62.979
		c6.169-19.746,15.785-37.071,26.459-54.146l0.263-0.419C487.907,228.866,512.083,215.114,537.923,215.395"/>
	<path clip-path="url(#SVGID_2_)" fill="#002E66" d="M759.921,757.799c-0.795-1.558-2.447-1.525-3.065-1.525l-1.621-0.045
		c-0.569-0.013-2.215-0.094-3.854-0.169c-1.688-0.088-3.372-0.161-3.947-0.182l-0.819-0.018c-1.883-0.058-3.768-0.113-5.645-0.145
		c-0.281,0.006-0.6-0.02-0.951-0.05c-2.189-0.132-6.344-0.438-7.596,3.46c-6.394,19.914-14.752,42.044-28.211,55.259
		c-13.245,13.214-30.783,19.847-49.152,18.613l-7.244-0.481c-1.252,0.019-2.579-0.288-3.968-0.607c-0.883-0.2-1.771-0.406-2.483-0.5
		c-0.882-0.218-1.79-0.376-2.691-0.532c-1.407-0.25-2.734-0.48-4.035-0.982l-6.582-2.177c-9.836-4.049-17.788-8.666-24.339-14.128
		c-12.775-10.305-25.083-27.248-36.583-50.359l-0.313-0.646c-0.938-1.945-1.695-3.184-4.373-3.903
		c-1.928-0.526-3.805-0.495-5.625-0.482c-0.688,0.006-1.382,0.019-2.065-0.013c-3.096-0.125-10.542-0.5-13.645-0.656
		c-1.039-0.057-2.052,0.356-2.784,1.126c-0.745,0.776-1.152,1.852-1.108,2.96c0.032,0.956,0.032,2.84,0.025,4.699
		c-0.006,1.895-0.006,3.771,0.025,4.691c0.082,2.002,1.558,3.616,3.454,3.761c2.321,0.181,9.041,0.531,11.375,0.638
		c0.65,0.031,1.295,0.006,1.951-0.005c0.996-0.039,1.929-0.076,3.079,0.274c0.1,0.118,0.282,0.719,0.388,1.113l0.237,0.807
		c1.29,4.1,2.829,8.142,4.581,12.015c3.328,7.333,7.67,14.589,12.913,21.565c4.523,6.021,9.761,11.933,16.011,18.088
		c7.796,7.684,17.588,14.203,29.226,19.415l7.945,2.953c1.965,0.825,3.942,1.214,5.869,1.589c0.901,0.183,1.814,0.356,2.709,0.582
		c4.799,1.265,9.61,1.695,14.315,1.978c0.976,0.056,1.945,0.105,2.916,0.163h0.03c11.65,0.693,23.663-1.428,34.775-6.157
		c5.725-2.59,10.961-5.682,15.61-9.197c5.012-3.93,9.373-8.146,12.952-12.514c7.395-8.891,13.27-19.164,17.462-30.501
		c2.74-7.221,4.799-14.666,6.132-22.118l0.9-5.093c0.92,0,2.591,0.025,4.492,0.051c9.623,0.113,10.248,0.069,10.78-0.082
		c1.852-0.52,1.952-2.321,2.215-6.681l0.419-3.029C760.177,759.952,760.459,758.844,759.921,757.799"/>
	<path clip-path="url(#SVGID_2_)" fill="#002E66" d="M675.749,673.483c-24.621-1.295-45.317,13.315-46.231,32.623
		c-0.906,19.31,13.746,35.771,42.94,37.303c28.011,1.471,45.317-13.314,46.224-32.623
		C719.596,691.478,700.375,674.779,675.749,673.483"/>
	<path clip-path="url(#SVGID_2_)" fill="#002E66" d="M589.43,975.652c53.757-2.49,105.794-15.366,149.797-38.646
		c9.342-4.938,18.464-10.318,27.336-16.138c72.934-47.807,100.094-118.563,108.923-206.194
		c5.086-50.492-0.407-106.257-15.065-151.199c-4.443-13.633-16.612-31.04-16.263-31.308c0.413-0.314,3.311,2.859,3.692,3.265
		c1.395,1.49,2.74,3.291,4.142,4.774c0.456,0.495,0.926,0.989,1.39,1.476c2.021,2.122,5.655,6.589,7.558,9.335
		c0.707,1.027,2.171,1.045,2.915,0.044c26.879-36.363,29.2-87.674,2.472-127.123c-21.542-31.79-56.536-47.35-90.94-44.322
		c-3.061,0.27-5.863-1.714-6.664-4.849c-1.295-5.012-2.702-9.986-4.254-14.916c-2.903-9.241-6.264-18.319-10.104-27.172
		c-3.861-8.904-8.197-17.576-13.021-25.929c-4.861-8.427-10.218-16.536-16.049-24.244c-5.919-7.808-12.332-15.21-19.188-22.105
		c-7.027-7.064-14.535-13.596-22.438-19.534c-8.209-6.162-16.843-11.681-25.796-16.523c-9.441-5.1-19.239-9.455-29.274-13.071
		c-10.731-3.866-21.725-6.907-32.849-9.178c-5.899-1.208-11.844-2.196-17.806-2.991c-1.408-0.188-2.735-0.088-3.924-0.957
		c-1.088-0.807-1.401-1.808-2.158-2.96c-1.508-2.289-4.561-10.874-12.657-17.425c-8.159-6.607-20.697-9.704-31.44-10.161
		c-5.394-0.199-11.181,0.533-16.574,2.528c-5.387,2.015-10.53,5.099-14.935,9.191c-0.62,0.564-1.22,1.146-1.796,1.752
		c-2.258,2.328-4.266,4.918-6.006,7.696c-1.783,2.847-2.822,6.013-4.405,8.922c-2.665,4.88-9.404,4.73-13.94,5.656
		c-11.65,2.377-23.181,5.481-34.449,9.429c-10.154,3.56-20.103,7.808-29.707,12.801c-8.759,4.561-17.243,9.748-25.314,15.561
		c-7.471,5.374-14.591,11.287-21.279,17.7c-6.257,5.987-12.138,12.419-17.601,19.22c-5.13,6.401-9.891,13.127-14.252,20.128
		c-4.104,6.588-7.865,13.408-11.275,20.422c-3.184,6.545-6.062,13.258-8.64,20.09c-1.208,3.222-2.359,6.463-3.429,9.735
		c-0.288,0.857-2.503,9.31-2.89,9.323c-20.335,0.531-40.944,7.045-59.276,20.797c-50.667,37.991-64.757,116.593-33.173,163.488
		c0.982,1.464,2.002,2.884,3.053,4.266c9.716,12.795,22.975,22.106,37.559,27.774c0.438,0.169,0.882,0.313,1.32,0.462
		c4.148,1.378,8.365,2.516,12.576,3.654c2.59,0.707,5.187,1.39,7.796,2.039c1.207,0.301,2.421,0.602,3.629,0.883
		c0.525,0.119,2.747,0.226,1.426,1.215c-4.523,3.402-25.483,2.727-35.725,0.148c-2.009-0.506-4.017,0.839-4.555,2.942
		c-4.155,16.322-7.877,28.543-8.816,46.017c-3.948,73.654,7.565,150.68,50.635,210.794
		C345.337,936.598,471.509,981.121,589.43,975.652 M639.87,920.249c-102.059,5.325-176.557-74.328-176.176-151.073
		c0.375-76.745,59.333-126.136,165.283-128.97c129.539-3.46,167.135,54.053,166.76,130.797
		C795.355,847.747,737.519,915.156,639.87,920.249 M517.458,604.862c0.363-6.438,2.678-12.976,6.701-18.413
		c5.606-7.621,14.121-12.602,23.212-14.172c9.335-1.52,18.658,0.926,26.128,6.068c5.419,3.699,9.836,9.136,12.089,15.211
		c0.757,2.058-1.646,3.747-3.267,2.353c-4.286-3.68-8.803-6.199-13.496-7.896c-6.45-2.334-13.264-3.096-19.427-2.102
		c-6.331,1.126-12.613,3.729-17.881,8.064c-3.867,3.117-7.264,7.177-10.261,12.119C520.111,607.971,517.339,607.083,517.458,604.862
		 M689.711,596.966c1.678-6.245,5.324-12.131,10.424-16.53c7.063-6.126,16.412-8.998,25.597-8.416
		c9.428,0.696,18,5.256,24.226,12.013c4.498,4.868,7.664,11.2,8.597,17.65c0.307,2.19-2.384,3.272-3.68,1.534
		c-3.408-4.586-7.282-8.098-11.506-10.851c-5.806-3.772-12.288-6.105-18.507-6.575c-6.413-0.375-13.083,0.7-19.127,3.697
		c-4.448,2.152-8.634,5.344-12.607,9.491C691.645,600.519,689.142,599.068,689.711,596.966 M690.313,269.115
		c30.945,27.129,51.736,64.444,63.474,117.964c0.369,1.708,1.521,3.109,3.06,3.779c1.996,0.857,3.947,1.783,5.844,2.791
		c4.017,2.133,7.852,4.561,11.531,7.189c4.217,3.009,8.233,6.294,12.013,9.847c6.012,5.619,11.387,12.001,15.848,19.009
		c10.586-1.271,21.623,0.575,30.765,6.387c21.586,13.727,24.301,43.81,12.589,64.326c-1.627,2.854-3.554,5.398-5.726,7.651
		c-1.201,1.251-2.746,1.784-4.279,1.752c-0.801-1.351-1.614-2.696-2.435-4.029c-4.491-5.713-8.439-11.575-12.4-17.306
		c-4.136-5.975-8.327-11.751-12.727-17.281c-2.133-2.678-4.341-5.287-6.606-7.852c-1.59-1.764-3.229-3.504-4.867-5.237
		c-0.87-0.92-1.696-1.865-2.591-2.778c-1.271-1.295-2.597-2.59-3.904-3.885c-3.816-3.779-7.708-7.565-11.531-11.707
		c7.008,2.297,13.565,5.706,19.679,10.011c0.925,0.651,1.808,1.364,2.709,2.053c5.512-0.151,5.336-5.97,3.321-11.863
		c-6-9.21-13.771-17.075-22.186-23.57c-1.946-1.488-3.942-2.89-5.976-4.235c-5.5-3.641-11.287-6.776-17.181-9.372
		c-4.036-1.753-8.197-3.191-12.22-4.042c-1.026-0.226-1.971-0.364-2.99-0.501l-3.36-0.319c-2.239-0.257-4.479-0.313-6.7-0.538
		c-5.92-0.451-11.77-0.519-17.551-0.213c-1.933,0.1-3.848,0.257-5.762,0.45c-1.152,0.119-2.314,0.226-3.467,0.376
		c-8.346,1.114-16.467,3.165-24.244,6.351c-3.961,1.658-7.859,3.516-11.657,5.662c-3.791,2.065-7.458,4.279-11.03,6.819
		c-7.17,4.993-13.959,10.956-20.979,17.213c-7.014,6.238-14.516,12.551-22.787,18.132c-4.109,2.809-8.471,5.33-12.938,7.62
		c-4.448,2.053-8.722,4.255-13.276,5.919c-18,6.963-37.034,11.469-56.204,11.681c-19.139,0.707-38.122-2.615-56.073-8.358
		c-17.925-5.945-34.93-14.26-50.479-24.802c34.356,13.946,70.482,22.517,105.758,18.813c8.796-0.775,17.438-2.665,25.99-4.692
		c8.483-2.365,16.861-5.174,24.932-8.853c4.042-1.758,8.06-3.773,11.988-5.694c3.767-2.014,7.452-4.216,11.012-6.738
		c7.184-4.937,13.877-11.031,21.01-17.137c7.114-6.126,14.566-12.495,22.831-18.057c5.568-3.873,11.543-7.083,17.694-9.798
		c2.921-1.289,5.862-2.502,8.865-3.56c9.367-3.203,19.171-5.331,28.956-5.725c0.288-0.012,0.569,0,0.857-0.012
		c3.06-0.126,6.101-0.088,9.136,0.037c2.107,0.081,9.815,0.901,13.138,1.157c1.639,0.126-2.246-2.515-3.51-3.628
		c-7.721-6.801-11.105-18.695-12.613-27.942c-3.623-21.411-10.08-42.49-19.778-62.055c-3.159-6.375-10.304-18.05-14.195-24.012
		C677.061,263.203,687.565,266.7,690.313,269.115 M504.063,190.719c4.311-6.52,10.593-11.462,18.007-13.358
		c5.437-1.389,11.681-1.921,17.012,0.144c4.499,1.739,8.447,5.406,11.037,10.173c0.625,1.146,1.17,2.353,1.62,3.61
		c0.388,1.083,0.72,2.259,0.588,3.435c-0.093,0.795-0.486,1.721-1.088,2.121c-0.65,0.426-1.364,0.063-2.071,0.013
		c-2.002-0.15-3.998-0.263-6-0.357c-5.706-0.25-11.419-0.281-17.138-0.106c-4.36,0.131-8.715,0.375-13.063,0.732
		c-2.178,0.175-4.361,0.382-6.526,0.613c-1.533,0.156-4.349,1.326-4.931-1.126C501.041,194.674,503.136,192.095,504.063,190.719
		 M538.25,215.396c26.059,0.3,49.096,1.826,73.816,9.754c5.75,1.839,14.322,6.638,18.958,10.673
		c4.886,4.255,9.504,8.772,13.827,13.59c13.271,14.616,24.025,31.465,32.985,49.447c8.947,18.006,16.073,37.165,21.942,56.917
		c1.478,4.918,5.118,16.123,2.24,19.633c-3.16,3.854-9.342,1.377-13.597,0.726c-6.913-1.063-13.846-1.983-20.797-2.766
		c-36.683-4.129-73.766-4.298-110.456-0.137c-36.101,4.086-71.739,12.363-106.163,24.52c-10.136,3.585-17.876,2.615-17.494-8.653
		c0.182-5.287,0.475-12.295,1.145-19.897c1.858-21.078,6.194-43.183,12.344-62.979c6.17-19.746,15.786-37.071,26.46-54.146
		l0.263-0.419C487.964,228.766,512.296,215.108,538.25,215.396 M326.436,507.921c-24.589,19.871-55.028,18.851-71.933-4.443
		c-16.906-23.293-9.054-59.012,15.529-78.884c24.589-19.865,56.598-16.361,73.51,6.933
		C360.446,454.826,351.024,488.055,326.436,507.921 M318.902,358.761L318.902,358.761c3.047-9.979,7.001-20.578,12.201-31.352
		c11.631-24.088,27.773-45.586,47.807-62.486c16.28-13.721,34.806-24.25,54.326-31.852c6.946-2.704,16.6-3.736,24.189-3.904
		c10.599-0.244,12.551,2.74,7.245,11.624c-12.4,20.71-24.783,37.716-32.203,61.597c-6.551,21.192-10.092,43.128-11.381,65.077
		c-0.519,11.243-0.601,22.586,0.213,33.836c0.332,4.617-2.265,8.877-6.307,10.692c-2.227,1.001-4.455,2.021-6.682,3.041
		c-0.563,0.263-0.864,0.914-0.713,1.545c1.383,6.019,1.789,12.245,1.251,18.32c-0.262,2.909-0.707,5.787-1.439,8.578
		c-0.532,2.077-1.176,4.117-1.977,6.087c-0.738-7.658-1.533-14.884-3.103-21.785c-1.07-4.686-2.547-9.173-4.305-13.533
		c-1.708-3.348-3.604-6.62-5.737-9.786C375.463,379.477,348.283,362.978,318.902,358.761"/>
	<path clip-path="url(#SVGID_2_)" fill="#FFFFFF" d="M551.9,313.54c0.883,0.006,1.759-0.044,2.578-0.107l0.676,38.341
		c0.118,0.989-0.244,1.627-1.096,1.896l-4.654,0.1l0.149,7.708l45.7-0.882c7.032,0.025,20.621-4.317,21.729-20.847
		c0.013-0.181,1.377-16.117-13.258-22.186c3.873-2.785,7.615-7.809,8.078-16.061c0.006-0.351,0.031-8.722-5.594-14.635
		c-3.623-3.791-8.678-5.668-14.997-5.543l-1.164,0.012c0.55-2.847,0.801-5.756,0.751-8.659
		c-0.363-25.765-20.503-39.536-40.188-39.611c-10.267-0.131-20.815,4.499-28.21,12.376c-7.221,7.689-10.912,17.619-10.687,28.711
		C512.171,297.829,528.657,313.996,551.9,313.54 M568.725,291.297l7.746-0.175c-2.453,4.248-5.325,6.469-5.325,6.469
		c-0.769,0.482-1.532,0.92-2.289,1.32L568.725,291.297z M602.654,336.301c0.031,4.343-1.156,7.727-3.534,10.074
		c-4.624,4.561-12.352,4.029-12.433,3.998l-16.962,0.319l-0.45-27.473l14.284-0.251c0.106-0.006,10.211-0.782,15.648,4.468
		C601.484,329.626,602.61,332.528,602.654,336.301 M586.963,290.99c5.018,0.382,10.437,2.653,10.743,10.612
		c0.138,3.572-0.701,6.375-2.472,8.315c-3.01,3.285-7.864,3.291-7.965,3.291l-18.17,0.3l-0.067-4.104
		C576.89,305.493,583.172,299.037,586.963,290.99 M522.532,263.924c4.192-19.227,22.317-19.408,23.225-19.408
		c1.17-0.069,2.302-0.063,3.416,0c17.594,1.051,26.91,17.9,26.942,17.95c3.059,6.726,4.254,13.114,3.56,19.002l-30.99,0.513
		l0.075,7.201l4.548-0.088c0.213,0.395,0.676,1.509,0.845,4.167l0.139,8.992c-10.63-0.564-18.37-6.282-18.457-6.345l-0.138-0.1
		C519.854,285.478,522.532,263.949,522.532,263.924"/>
</g>
</svg>
